{
  "label": "B",
  "source_cell_id": "one_stage_q8_8s",
  "pipeline_lane": "one_stage_q8",
  "pipeline_label": "One-stage q8",
  "duration_seconds": 8,
  "frames": 192,
  "seed": 510136,
  "terminal_walk_start_seconds": 1281.131247,
  "terminal_walk_start_display": "21:21.131",
  "selection_reason": "Longer one-stage comparison: 8s tests whether extra runway helps the action read, but it carries a crouch-risk flag for human review.",
  "raw_chroma_crew_clip": {
    "path": "/Users/mike/Episodes_CascadeEffects/Ep1_Challenger/production/longform_v3_20_25min/youtube/rough_assembly/living_cover_photoreal_ink_lit_ltx23_variable_duration_terminal_walk_scout_20260506T173517Z/clips/raw_chroma_crew/one_stage_q8_8s_seed510136_raw_chroma_8s.mp4",
    "sha256": "d4b809cb9c191f87e7fbce5c389760c1935556f05f61b4441531923e96af867f",
    "bytes": 2024179,
    "duration_seconds": 8.0,
    "width": 960,
    "height": 384,
    "codec_name": "h264",
    "pix_fmt": "yuv420p",
    "avg_frame_rate": "24/1",
    "nb_frames": "192",
    "has_audio": false,
    "ffprobe": {
      "streams": [
        {
          "index": 0,
          "codec_name": "h264",
          "codec_long_name": "H.264 / AVC / MPEG-4 AVC / MPEG-4 part 10",
          "profile": "High",
          "codec_type": "video",
          "codec_tag_string": "avc1",
          "codec_tag": "0x31637661",
          "width": 960,
          "height": 384,
          "coded_width": 960,
          "coded_height": 384,
          "has_b_frames": 2,
          "pix_fmt": "yuv420p",
          "level": 30,
          "chroma_location": "left",
          "field_order": "progressive",
          "refs": 1,
          "is_avc": "true",
          "nal_length_size": "4",
          "id": "0x1",
          "r_frame_rate": "24/1",
          "avg_frame_rate": "24/1",
          "time_base": "1/12288",
          "start_pts": 0,
          "start_time": "0.000000",
          "duration_ts": 98304,
          "duration": "8.000000",
          "bit_rate": "2021010",
          "bits_per_raw_sample": "8",
          "nb_frames": "192",
          "extradata_size": 45,
          "disposition": {
            "default": 1,
            "dub": 0,
            "original": 0,
            "comment": 0,
            "lyrics": 0,
            "karaoke": 0,
            "forced": 0,
            "hearing_impaired": 0,
            "visual_impaired": 0,
            "clean_effects": 0,
            "attached_pic": 0,
            "timed_thumbnails": 0,
            "non_diegetic": 0,
            "captions": 0,
            "descriptions": 0,
            "metadata": 0,
            "dependent": 0,
            "still_image": 0,
            "multilayer": 0
          },
          "tags": {
            "language": "und",
            "handler_name": "VideoHandler",
            "vendor_id": "[0][0][0][0]",
            "encoder": "Lavc62.11.100 libx264"
          }
        }
      ],
      "format": {
        "filename": "/Users/mike/Episodes_CascadeEffects/Ep1_Challenger/production/longform_v3_20_25min/youtube/rough_assembly/living_cover_photoreal_ink_lit_ltx23_variable_duration_terminal_walk_scout_20260506T173517Z/clips/raw_chroma_crew/one_stage_q8_8s_seed510136_raw_chroma_8s.mp4",
        "nb_streams": 1,
        "nb_programs": 0,
        "nb_stream_groups": 0,
        "format_name": "mov,mp4,m4a,3gp,3g2,mj2",
        "format_long_name": "QuickTime / MOV",
        "start_time": "0.000000",
        "duration": "8.000000",
        "size": "2024179",
        "bit_rate": "2024179",
        "probe_score": 100,
        "tags": {
          "major_brand": "isom",
          "minor_version": "512",
          "compatible_brands": "isomiso2avc1mp41",
          "encoder": "Lavf62.3.100"
        }
      }
    }
  },
  "keyed_alpha_preview_clip": {
    "path": "/Users/mike/Episodes_CascadeEffects/Ep1_Challenger/production/longform_v3_20_25min/youtube/rough_assembly/living_cover_photoreal_ink_lit_ltx23_variable_duration_terminal_walk_scout_20260506T173517Z/clips/keyed_alpha_preview/one_stage_q8_8s_keyed_alpha_preview_8s.mp4",
    "sha256": "3f07eb702f9d8ebd5215bddfaeb7c0d4342c0168015e792c8f050f44e90c4926",
    "bytes": 2356279,
    "duration_seconds": 8.0,
    "width": 960,
    "height": 384,
    "codec_name": "h264",
    "pix_fmt": "yuv420p",
    "avg_frame_rate": "24/1",
    "nb_frames": "192",
    "has_audio": false,
    "ffprobe": {
      "streams": [
        {
          "index": 0,
          "codec_name": "h264",
          "codec_long_name": "H.264 / AVC / MPEG-4 AVC / MPEG-4 part 10",
          "profile": "High",
          "codec_type": "video",
          "codec_tag_string": "avc1",
          "codec_tag": "0x31637661",
          "width": 960,
          "height": 384,
          "coded_width": 960,
          "coded_height": 384,
          "has_b_frames": 2,
          "pix_fmt": "yuv420p",
          "level": 30,
          "chroma_location": "left",
          "field_order": "progressive",
          "refs": 1,
          "is_avc": "true",
          "nal_length_size": "4",
          "id": "0x1",
          "r_frame_rate": "24/1",
          "avg_frame_rate": "24/1",
          "time_base": "1/12288",
          "start_pts": 0,
          "start_time": "0.000000",
          "duration_ts": 98304,
          "duration": "8.000000",
          "bit_rate": "2353110",
          "bits_per_raw_sample": "8",
          "nb_frames": "192",
          "extradata_size": 45,
          "disposition": {
            "default": 1,
            "dub": 0,
            "original": 0,
            "comment": 0,
            "lyrics": 0,
            "karaoke": 0,
            "forced": 0,
            "hearing_impaired": 0,
            "visual_impaired": 0,
            "clean_effects": 0,
            "attached_pic": 0,
            "timed_thumbnails": 0,
            "non_diegetic": 0,
            "captions": 0,
            "descriptions": 0,
            "metadata": 0,
            "dependent": 0,
            "still_image": 0,
            "multilayer": 0
          },
          "tags": {
            "language": "und",
            "handler_name": "VideoHandler",
            "vendor_id": "[0][0][0][0]",
            "encoder": "Lavc62.11.100 libx264"
          }
        }
      ],
      "format": {
        "filename": "/Users/mike/Episodes_CascadeEffects/Ep1_Challenger/production/longform_v3_20_25min/youtube/rough_assembly/living_cover_photoreal_ink_lit_ltx23_variable_duration_terminal_walk_scout_20260506T173517Z/clips/keyed_alpha_preview/one_stage_q8_8s_keyed_alpha_preview_8s.mp4",
        "nb_streams": 1,
        "nb_programs": 0,
        "nb_stream_groups": 0,
        "format_name": "mov,mp4,m4a,3gp,3g2,mj2",
        "format_long_name": "QuickTime / MOV",
        "start_time": "0.000000",
        "duration": "8.000000",
        "size": "2356279",
        "bit_rate": "2356279",
        "probe_score": 100,
        "tags": {
          "major_brand": "isom",
          "minor_version": "512",
          "compatible_brands": "isomiso2avc1mp41",
          "encoder": "Lavf62.3.100"
        }
      }
    }
  },
  "composited_full_frame_clip": {
    "path": "/Users/mike/Episodes_CascadeEffects/Ep1_Challenger/production/longform_v3_20_25min/youtube/rough_assembly/living_cover_photoreal_ink_lit_ltx23_variable_duration_terminal_walk_scout_20260506T173517Z/clips/composited_full_frame/one_stage_q8_8s_composited_full_frame_8s.mp4",
    "sha256": "e6b9331cf9a788f1cfe98419a67041d1454101d96a88aeba585d969f1315d18e",
    "bytes": 2417804,
    "duration_seconds": 8.0,
    "width": 1920,
    "height": 1080,
    "codec_name": "h264",
    "pix_fmt": "yuv420p",
    "avg_frame_rate": "24/1",
    "nb_frames": "192",
    "has_audio": false,
    "ffprobe": {
      "streams": [
        {
          "index": 0,
          "codec_name": "h264",
          "codec_long_name": "H.264 / AVC / MPEG-4 AVC / MPEG-4 part 10",
          "profile": "High",
          "codec_type": "video",
          "codec_tag_string": "avc1",
          "codec_tag": "0x31637661",
          "width": 1920,
          "height": 1080,
          "coded_width": 1920,
          "coded_height": 1080,
          "has_b_frames": 2,
          "pix_fmt": "yuv420p",
          "level": 40,
          "chroma_location": "left",
          "field_order": "progressive",
          "refs": 1,
          "is_avc": "true",
          "nal_length_size": "4",
          "id": "0x1",
          "r_frame_rate": "24/1",
          "avg_frame_rate": "24/1",
          "time_base": "1/12288",
          "start_pts": 0,
          "start_time": "0.000000",
          "duration_ts": 98304,
          "duration": "8.000000",
          "bit_rate": "2414617",
          "bits_per_raw_sample": "8",
          "nb_frames": "192",
          "extradata_size": 47,
          "disposition": {
            "default": 1,
            "dub": 0,
            "original": 0,
            "comment": 0,
            "lyrics": 0,
            "karaoke": 0,
            "forced": 0,
            "hearing_impaired": 0,
            "visual_impaired": 0,
            "clean_effects": 0,
            "attached_pic": 0,
            "timed_thumbnails": 0,
            "non_diegetic": 0,
            "captions": 0,
            "descriptions": 0,
            "metadata": 0,
            "dependent": 0,
            "still_image": 0,
            "multilayer": 0
          },
          "tags": {
            "language": "und",
            "handler_name": "VideoHandler",
            "vendor_id": "[0][0][0][0]",
            "encoder": "Lavc62.11.100 libx264"
          }
        }
      ],
      "format": {
        "filename": "/Users/mike/Episodes_CascadeEffects/Ep1_Challenger/production/longform_v3_20_25min/youtube/rough_assembly/living_cover_photoreal_ink_lit_ltx23_variable_duration_terminal_walk_scout_20260506T173517Z/clips/composited_full_frame/one_stage_q8_8s_composited_full_frame_8s.mp4",
        "nb_streams": 1,
        "nb_programs": 0,
        "nb_stream_groups": 0,
        "format_name": "mov,mp4,m4a,3gp,3g2,mj2",
        "format_long_name": "QuickTime / MOV",
        "start_time": "0.000000",
        "duration": "8.000000",
        "size": "2417804",
        "bit_rate": "2417804",
        "probe_score": 100,
        "tags": {
          "major_brand": "isom",
          "minor_version": "512",
          "compatible_brands": "isomiso2avc1mp41",
          "encoder": "Lavf62.3.100"
        }
      }
    }
  },
  "transition_review_clip": {
    "path": "/Users/mike/Episodes_CascadeEffects/Ep1_Challenger/production/longform_v3_20_25min/youtube/rough_assembly/living_cover_photoreal_ink_lit_ltx23_variable_duration_terminal_walk_scout_20260506T173517Z/clips/transition_review/one_stage_q8_8s_static_then_terminal_walk_review_10s.mp4",
    "sha256": "104b82bd0b569caa433b65fbadf23547698e1275803a244279c66463ef34e9c3",
    "bytes": 2487445,
    "duration_seconds": 10.0,
    "width": 1920,
    "height": 1080,
    "codec_name": "h264",
    "pix_fmt": "yuv420p",
    "avg_frame_rate": "24/1",
    "nb_frames": "240",
    "has_audio": false,
    "ffprobe": {
      "streams": [
        {
          "index": 0,
          "codec_name": "h264",
          "codec_long_name": "H.264 / AVC / MPEG-4 AVC / MPEG-4 part 10",
          "profile": "High",
          "codec_type": "video",
          "codec_tag_string": "avc1",
          "codec_tag": "0x31637661",
          "width": 1920,
          "height": 1080,
          "coded_width": 1920,
          "coded_height": 1080,
          "has_b_frames": 2,
          "pix_fmt": "yuv420p",
          "level": 40,
          "chroma_location": "left",
          "field_order": "progressive",
          "refs": 1,
          "is_avc": "true",
          "nal_length_size": "4",
          "id": "0x1",
          "r_frame_rate": "24/1",
          "avg_frame_rate": "24/1",
          "time_base": "1/12288",
          "start_pts": 0,
          "start_time": "0.000000",
          "duration_ts": 122880,
          "duration": "10.000000",
          "bit_rate": "1986945",
          "bits_per_raw_sample": "8",
          "nb_frames": "240",
          "extradata_size": 47,
          "disposition": {
            "default": 1,
            "dub": 0,
            "original": 0,
            "comment": 0,
            "lyrics": 0,
            "karaoke": 0,
            "forced": 0,
            "hearing_impaired": 0,
            "visual_impaired": 0,
            "clean_effects": 0,
            "attached_pic": 0,
            "timed_thumbnails": 0,
            "non_diegetic": 0,
            "captions": 0,
            "descriptions": 0,
            "metadata": 0,
            "dependent": 0,
            "still_image": 0,
            "multilayer": 0
          },
          "tags": {
            "language": "und",
            "handler_name": "VideoHandler",
            "vendor_id": "[0][0][0][0]",
            "encoder": "Lavc62.11.100 libx264"
          }
        }
      ],
      "format": {
        "filename": "/Users/mike/Episodes_CascadeEffects/Ep1_Challenger/production/longform_v3_20_25min/youtube/rough_assembly/living_cover_photoreal_ink_lit_ltx23_variable_duration_terminal_walk_scout_20260506T173517Z/clips/transition_review/one_stage_q8_8s_static_then_terminal_walk_review_10s.mp4",
        "nb_streams": 1,
        "nb_programs": 0,
        "nb_stream_groups": 0,
        "format_name": "mov,mp4,m4a,3gp,3g2,mj2",
        "format_long_name": "QuickTime / MOV",
        "start_time": "0.000000",
        "duration": "10.000000",
        "size": "2487445",
        "bit_rate": "1989956",
        "probe_score": 100,
        "tags": {
          "major_brand": "isom",
          "minor_version": "512",
          "compatible_brands": "isomiso2avc1mp41",
          "encoder": "Lavf62.3.100"
        }
      }
    }
  },
  "machine_motion_probe": {
    "crew_crop_motion_delta_score": 34.7789,
    "upper_body_raise_probe": {
      "upper_body_blue_pixel_counts": [
        10889,
        14011,
        15368,
        14773,
        16370,
        15064
      ],
      "max_delta_from_first": 5481,
      "machine_flag": "no_large_upper_body_raise_detected"
    },
    "squat_crouch_probe": {
      "silhouette_top_y": [
        79,
        82,
        0,
        0,
        0,
        0
      ],
      "silhouette_center_y": [
        219.42,
        220.862,
        221.532,
        224.872,
        236.37,
        198.451
      ],
      "max_top_drop_pixels": 3,
      "max_center_drop_pixels": 16.951,
      "machine_flag": "review_possible_squat_or_crouch"
    },
    "note": "Machine probes are coarse screening only; human review is authoritative."
  },
  "selected_for_full_runtime_html_proof": false,
  "selected_for_full_runtime_html_proof_status": "pending_human_review",
  "human_disposition": "defer"
}
